<svg xmlns="http://www.w3.org/2000/svg" xmlns:xlink="http://www.w3.org/1999/xlink" version="1.1" id="binoculars" x="0px" y="0px" viewBox="0 0 80 80" style="enable-background:new 0 0 80 80;" xml:space="preserve"><style type="text/css">.st0{fill:#aabad3;}.st1{fill:#FFFFFF;}</style>
<circle class="st0" cx="40.2" cy="40.2" r="40"/><g><path class="st1" d="M23 20.6h14.5V23H23V20.6z M42.4 20.6H57V23H42.4V20.6z M56.7 32.7h-2.1V23h-9.7v9.7h-9.7V23h-9.7v9.7h-2.1 c-1.5 0-2.7 1.2-2.7 2.7v21.2c0 1.5 1.2 2.7 2.7 2.7h11.5c1.5 0 2.7-1.2 2.7-2.7V42.4h4.8v14.2c0 1.5 1.2 2.7 2.7 2.7h11.5 c1.5 0 2.7-1.2 2.7-2.7V35.5C59.4 34 58.2 32.7 56.7 32.7z M33.8 57h-9.4c-0.7 0-1.4-0.5-1.4-1.2s0.6-1.2 1.4-1.2h9.4 c0.7 0 1.4 0.5 1.4 1.2S34.5 57 33.8 57z M41.2 40h-2.4c-0.7 0-1.2-0.5-1.2-1.2s0.5-1.2 1.2-1.2h2.4c0.7 0 1.2 0.5 1.2 1.2 S41.9 40 41.2 40z M55.6 57h-9.4c-0.7 0-1.4-0.5-1.4-1.2s0.6-1.2 1.4-1.2h9.4c0.7 0 1.4 0.5 1.4 1.2S56.3 57 55.6 57z"/></g></svg>