<svg xmlns="http://www.w3.org/2000/svg" xmlns:xlink="http://www.w3.org/1999/xlink" version="1.1" id="car" x="0px" y="0px" viewBox="0 0 80 80" xml:space="preserve" class="style0"><style>.style0{enable-background:	new 0 0 80 80;}</style><style type="text/css">.st0{fill:#8d8b8e;}.st1{fill:#FFFFFF;}</style><circle class="st0" cx="40.2" cy="40.2" r="40"/><g><path class="st1" d="M61 35.5h-3c0-0.2 0-0.5-0.1-0.7l-3-12c-0.3-1.3-1.5-2.3-2.9-2.3H28c-1.4 0-2.6 0.9-2.9 2.3l-3 12 C22 35 22 35.3 22 35.5h-3c-1.7 0-3 1.3-3 3v12c0 1.7 1.3 3 3 3h3v3c0 1.7 1.3 3 3 3s3-1.3 3-3v-3h24v3c0 1.7 1.3 3 3 3 c1.7 0 3-1.3 3-3v-3h3c1.7 0 3-1.3 3-3v-12C64 36.8 62.7 35.5 61 35.5z M25 47.5c-1.7 0-3-1.3-3-3c0-1.7 1.3-3 3-3s3 1.3 3 3 C28 46.2 26.7 47.5 25 47.5z M28.1 35.5l2.3-9h19.3l2.3 9C51.9 35.5 28.1 35.5 28.1 35.5z M55 47.5c-1.7 0-3-1.3-3-3 c0-1.7 1.3-3 3-3c1.7 0 3 1.3 3 3C58 46.2 56.7 47.5 55 47.5z"/></g></svg>