<?xml version="1.0" encoding="utf-8"?>
<!-- Generator: Adobe Illustrator 19.1.0, SVG Export Plug-In . SVG Version: 6.00 Build 0)  -->
<svg version="1.1" id="Layer_3" xmlns="http://www.w3.org/2000/svg" xmlns:xlink="http://www.w3.org/1999/xlink" x="0px" y="0px"
	 viewBox="0 0 1024 768" style="enable-background:new 0 0 1024 768;" xml:space="preserve">
<style type="text/css">
	.st0{fill:none;stroke:#ffffff;stroke-width:20;stroke-miterlimit:10;}
</style>
<path class="st0" d="M413,437c0,0,18-77,26-97s16-32,19-64c0,0,20,0,27,30s12,94,12,94"/>
<path class="st0" d="M654,446c0,0-55-136-99-164s-97-6-97-6"/>
<path class="st0" d="M382,444c0,0,17-39,22-55s17-53,17-53l18,4"/>
<path class="st0" d="M323,432c0,0,42-7,81-43"/>
<path class="st0" d="M336,475c0,0,50-35,66-42s35,22,35,22"/>
<path class="st0" d="M363,522c0,0,29-39,45-51s42-20,42-20s14-18,14-47c0,0,37-12,107,11s113,48,113,48"/>
<circle class="st0" cx="506.5" cy="401.5" r="187.5"/>
</svg>
