<svg xmlns="http://www.w3.org/2000/svg" xmlns:xlink="http://www.w3.org/1999/xlink" version="1.1" id="leaf" x="0px" y="0px" viewBox="0 0 80 80" xml:space="preserve" class="style0"><style>.style0{enable-background:	new 0 0 80 80;}</style><style type="text/css">.st0{fill:#006837;}.st1{fill:#FFFFFF;}</style><g><g><circle class="st0" cx="40" cy="40" r="40"/></g><g><path class="st1" d="M63.5 22c-5.2-4-13.2-6.3-21.5-6.3c-10.2 0-18.5 3.6-22.8 9.8c-2 2.9-3.1 6.4-3.3 10.2 c-0.2 3.5 0.4 7.3 1.7 11.4C22.1 33.7 34.6 23.2 49 23.2c0 0-13.5 3.5-21.9 14.5c0 0-0.1 0.1-0.3 0.4c-1.7 2.3-3.2 4.9-4.3 7.8 c-1.9 4.5-3.6 10.6-3.6 18h6c0 0-0.9-5.8 0.7-12.4c2.6 0.4 5 0.5 7.1 0.5c5.5 0 9.5-1.2 12.4-3.8c2.6-2.3 4.1-5.4 5.6-8.7 c2.3-5 5-10.7 12.7-15.1c0.4-0.3 0.7-0.7 0.8-1.2C64.1 22.8 63.9 22.3 63.5 22L63.5 22z"/></g></g></svg>