<svg xmlns="http://www.w3.org/2000/svg" xmlns:xlink="http://www.w3.org/1999/xlink" version="1.1" id="mountains" x="0px" y="0px" viewBox="0 0 80 80" xml:space="preserve" class="style0"><style>.style0{enable-background:	new 0 0 80 80;}</style><style type="text/css">.st0{fill:#607391;}.st1{fill:#FFFFFF;}</style><g><circle class="st0" cx="40" cy="40.4" r="40"/><g><path class="st1" d="M69.6 53.9L53.2 30.5c-0.3-0.4-0.8-0.7-1.4-0.7c-0.5 0-1.1 0.3-1.4 0.7l-3.5 5l-10.5-15 c-0.3-0.4-0.8-0.7-1.4-0.7c-0.5 0-1.1 0.3-1.4 0.7L10.3 53.9c-0.4 0.5-0.4 1.2-0.1 1.7c0.3 0.6 0.9 0.9 1.5 0.9h56.6 c0.6 0 1.2-0.3 1.5-0.9C70 55.1 70 54.4 69.6 53.9z M35.1 24.3l8.5 12.1h-4.5l-2.9-2.9c-0.7-0.7-1.7-0.7-2.4 0L31 36.5h-4.5 L35.1 24.3z M59.4 53.2l-10.5-15l0.1 0.1l2.8-4L65 53.2H59.4L59.4 53.2z"/></g></g></svg>