<svg xmlns="http://www.w3.org/2000/svg" xmlns:xlink="http://www.w3.org/1999/xlink" version="1.1" id="paw" x="0px" y="0px" viewBox="0 0 80 80" style="enable-background:new 0 0 80 80;" xml:space="preserve"><style type="text/css">.st0{fill:#776944;}.st1{fill:#FFFFFF;}</style>
<g><circle class="st0" cx="40.2" cy="40.2" r="40"/><g><path class="st1" d="M41.2 41.1c-5.5 0-10.8 2.5-14.2 12.4s4.1 9.1 8.8 7.1c4.6-2 6.3-2.3 11.9 0.3c5.2 2.5 9.7-0.1 7.8-5.5 S47.4 41.1 41.2 41.1z M30.8 18.8c-3.1 0.8-4.8 5-3.7 9.5c1.1 4.5 4.5 7.6 7.7 6.8c0 0 0 0 0 0c3.1-0.8 4.8-5 3.7-9.5 C38 23.7 37.1 22 36 20.8C34.5 19.2 32.6 18.4 30.8 18.8C30.8 18.8 30.8 18.8 30.8 18.8z M49 18.6c-3.2-0.7-6.5 2.5-7.4 7 c-0.5 2.6-0.2 5.1 0.8 6.9c0.7 1.3 1.8 2.2 3.2 2.5c0 0 0 0 0 0c3.2 0.7 6.5-2.5 7.4-7S52.2 19.3 49 18.6C49 18.6 49 18.6 49 18.6 z M18.6 42.1c1.7 4 5.4 6.3 8.2 5.1c1.6-0.7 2.5-2.4 2.7-4.4c0.2-1.5-0.1-3.3-0.9-5c0 0 0 0 0 0c-1.7-4-5.4-6.3-8.2-5.1 C17.7 33.8 16.9 38.1 18.6 42.1C18.6 42.1 18.6 42.1 18.6 42.1L18.6 42.1z M53.6 46.5c1.6 0.7 3.5 0.3 5.1-1 c1.2-0.9 2.3-2.3 3.1-4.1c1.7-4 0.9-8.3-1.9-9.5c0 0 0 0 0 0c-2.8-1.2-6.4 1-8.2 5.1C50 41 50.8 45.3 53.6 46.5 C53.6 46.5 53.6 46.5 53.6 46.5z"/></g></g></svg>