<svg xmlns="http://www.w3.org/2000/svg" xmlns:xlink="http://www.w3.org/1999/xlink" version="1.1" id="tent" x="0px" y="0px" viewBox="0 0 80 80" xml:space="preserve" class="style0"><style>.style0{enable-background:	new 0 0 80 80;}</style><style type="text/css">.st0{fill:#BFAE8E;}.st1{fill:#FFFFFF;}</style><g><circle class="st0" cx="40" cy="39.8" r="40"/><g><path class="st1" d="M64.9 56.8c0-0.6-0.2-1.3-0.6-1.8L43.8 29.4l8-11.3c1-1.4 0.7-3.3-0.7-4.3c-1.4-1-3.3-0.7-4.3 0.7L40 24.1 l-6.8-9.5c-1-1.4-2.9-1.7-4.3-0.7c-1.4 1-1.7 2.9-0.7 4.3l8 11.3L15.7 55c-0.4 0.5-0.6 1.2-0.6 1.8l0 0v6.2H40V38.2l12.4 24.9 h12.4L64.9 56.8L64.9 56.8L64.9 56.8z"/></g></g></svg>